<?xml version="1.0" encoding="UTF-8" standalone="no"?>
<svg xmlns:svg="http://www.w3.org/2000/svg" xmlns="http://www.w3.org/2000/svg"
     width="410" height="160">
	<defs>
		<symbol id="syncMessage">
			<desc>The arrow of a synchron message</desc>
			<path d="M 0 0 L 93 0 L 93 -3 L 100 0 L 93 3 L 93 0" fill="black"/>
		</symbol>
	</defs>
	<g style="font-size:14;font-style:normal;font-weight:normal;fill:none;font-family:sans-serif;stroke:#000000;stroke-width:1">
		<circle cx="10" cy="30" r="5"/>
		<line x1="15" y1="30" x2="50" y2="30"/>
		<text x="80" y="15" stroke-width="0.7" text-anchor="middle">2 kΩ</text>
		<rect x="50" y="20" width="60" height="20"/>
		<line x1="110" y1="30" x2="160" y2="30"/>
		<text x="190" y="15" stroke-width="0.7" text-anchor="middle">150 mH</text>
		<rect x="160" y="20" width="60" height="20" fill="#000000"/>
		<line x1="220" y1="30" x2="360" y2="30"/>
		<circle cx="270" cy="30" r="3" fill="#000000"/>
		<line x1="270" y1="30" x2="270" y2="60"/>
		<rect x="260" y="60" width="20" height="60"/>
		<text x="285" y="80" stroke-width="0.7">1 kΩ</text>
		<line x1="270" y1="120" x2="270" y2="150"/>
		<circle cx="270" cy="150" r="3" fill="#000000"/>
		<text x="365" y="80" stroke-width="0.7">0,2 µF</text>
		<line x1="360" y1="30" x2="360" y2="85"/>
		<line x1="340" y1="85" x2="380" y2="85"/>
		<line x1="340" y1="95" x2="380" y2="95"/>
		<line x1="360" y1="95" x2="360" y2="150"/>
		<line x1="15" y1="150" x2="360" y2="150"/>
		<circle cx="10" cy="150" r="5"/>
	</g>
</svg>
